<svg width="24" height="24" viewBox="0 0 24 24" fill="none" xmlns="http://www.w3.org/2000/svg">
    <path d="M18.0494 12.5689C18.0399 10.9302 18.8337 9.69336 20.4405 8.78248C19.5414 7.58137 18.1833 6.92054 16.39 6.79105C14.6923 6.66603 12.8369 7.71533 12.1578 7.71533C11.4405 7.71533 9.79543 6.8357 8.50425 6.8357C5.83581 6.87589 3 8.82267 3 12.7832C3 13.9531 3.22954 15.1616 3.68863 16.4089C4.30074 18.0476 6.5101 22.0662 8.81509 21.9992C10.0202 21.9724 10.8714 21.1999 12.44 21.1999C13.9607 21.1999 14.7497 21.9992 16.0935 21.9992C18.4176 21.9679 20.4166 18.3155 21 16.6723C17.882 15.3015 18.0494 12.6537 18.0494 12.5689ZM15.3427 5.2372C16.6482 3.7905 16.5287 2.4733 16.4904 2C15.3379 2.06251 14.0037 2.73228 13.2434 3.55832C12.4065 4.44241 11.9139 5.53636 12.0191 6.76872C13.2673 6.85803 14.4054 6.2597 15.3427 5.2372Z" fill="black"></path>
</svg>