<svg width="20" height="20" viewBox="0 0 20 20" fill="none" xmlns="http://www.w3.org/2000/svg">
    <g opacity="0.6">
        <path d="M6.6666 18.3333H13.3333C16.6833 18.3333 17.2833 16.9917 17.4583 15.3583L18.0833 8.69167C18.3083 6.65833 17.7249 5 14.1666 5H5.83327C2.27494 5 1.6916 6.65833 1.9166 8.69167L2.5416 15.3583C2.7166 16.9917 3.3166 18.3333 6.6666 18.3333Z" stroke="#121927" stroke-width="1.5" stroke-miterlimit="10" stroke-linecap="round" stroke-linejoin="round"></path>
        <path d="M6.66675 4.99984V4.33317C6.66675 2.85817 6.66675 1.6665 9.33341 1.6665H10.6667C13.3334 1.6665 13.3334 2.85817 13.3334 4.33317V4.99984" stroke="#121927" stroke-width="1.5" stroke-miterlimit="10" stroke-linecap="round" stroke-linejoin="round"></path>
        <path d="M11.6666 10.8333V11.6667C11.6666 11.675 11.6666 11.675 11.6666 11.6833C11.6666 12.5917 11.6583 13.3333 9.99992 13.3333C8.34992 13.3333 8.33325 12.6 8.33325 11.6917V10.8333C8.33325 10 8.33325 10 9.16659 10H10.8333C11.6666 10 11.6666 10 11.6666 10.8333Z" stroke="#121927" stroke-width="1.5" stroke-miterlimit="10" stroke-linecap="round" stroke-linejoin="round"></path>
        <path d="M18.0417 9.1665C16.1167 10.5665 13.9167 11.3998 11.6667 11.6832" stroke="#121927" stroke-width="1.5" stroke-miterlimit="10" stroke-linecap="round" stroke-linejoin="round"></path>
        <path d="M2.18335 9.3916C4.05835 10.6749 6.17502 11.4499 8.33335 11.6916" stroke="#121927" stroke-width="1.5" stroke-miterlimit="10" stroke-linecap="round" stroke-linejoin="round"></path>
    </g>
</svg>