<svg width="20" height="20" viewBox="0 0 20 20" fill="none" xmlns="http://www.w3.org/2000/svg">
                                        <g opacity="0.6">
                                            <path d="M7.7085 7.5415C9.19183 8.08317 10.8085 8.08317 12.2918 7.5415H7.7085Z" fill="#121927"></path>
                                            <path d="M7.7085 7.5415C9.19183 8.08317 10.8085 8.08317 12.2918 7.5415" stroke="#121927" stroke-width="1.5" stroke-linecap="round" stroke-linejoin="round"></path>
                                            <path d="M14.0166 1.6665H5.98327C4.20827 1.6665 2.7666 3.1165 2.7666 4.88317V16.6248C2.7666 18.1248 3.8416 18.7582 5.15827 18.0332L9.22493 15.7748C9.65827 15.5332 10.3583 15.5332 10.7833 15.7748L14.8499 18.0332C16.1666 18.7665 17.2416 18.1332 17.2416 16.6248V4.88317C17.2333 3.1165 15.7916 1.6665 14.0166 1.6665Z" stroke="#121927" stroke-width="1.5" stroke-linecap="round" stroke-linejoin="round"></path>
                                            <path d="M14.0166 1.6665H5.98327C4.20827 1.6665 2.7666 3.1165 2.7666 4.88317V16.6248C2.7666 18.1248 3.8416 18.7582 5.15827 18.0332L9.22493 15.7748C9.65827 15.5332 10.3583 15.5332 10.7833 15.7748L14.8499 18.0332C16.1666 18.7665 17.2416 18.1332 17.2416 16.6248V4.88317C17.2333 3.1165 15.7916 1.6665 14.0166 1.6665Z" stroke="#121927" stroke-width="1.5" stroke-linecap="round" stroke-linejoin="round"></path>
                                        </g>
                                    </svg>