<svg width="20" height="20" viewBox="0 0 20 20" fill="none" xmlns="http://www.w3.org/2000/svg">
                            <path d="M13.2 1.97607H6.8C3.6 1.97607 2 3.57607 2 6.77607V10.7761C2 14.7761 3.6 15.5761 6.8 15.5761H7.2C7.424 15.5761 7.712 15.7201 7.84 15.8961L9.04 17.4961C9.568 18.2001 10.432 18.2001 10.96 17.4961L12.16 15.8961C12.312 15.6961 12.552 15.5761 12.8 15.5761H13.2C16.4 15.5761 18 13.9761 18 10.7761V6.77607C18 3.57607 16.4 1.97607 13.2 1.97607ZM7.224 10.1361C7.456 10.3681 7.456 10.7521 7.224 10.9841C7.104 11.1041 6.952 11.1601 6.8 11.1601C6.648 11.1601 6.496 11.1041 6.376 10.9841L4.776 9.38407C4.544 9.15207 4.544 8.76807 4.776 8.53607L6.376 6.93607C6.608 6.70407 6.992 6.70407 7.224 6.93607C7.456 7.16807 7.456 7.55207 7.224 7.78407L6.048 8.96007L7.224 10.1361ZM11.352 7.32807L9.752 11.0641C9.656 11.2881 9.432 11.4241 9.2 11.4241C9.12 11.4241 9.04 11.4081 8.96 11.3761C8.656 11.2481 8.512 10.8961 8.648 10.5841L10.248 6.84807C10.376 6.54407 10.728 6.40007 11.04 6.53607C11.344 6.67207 11.48 7.02407 11.352 7.32807ZM15.224 9.38407L13.624 10.9841C13.504 11.1041 13.352 11.1601 13.2 11.1601C13.048 11.1601 12.896 11.1041 12.776 10.9841C12.544 10.7521 12.544 10.3681 12.776 10.1361L13.952 8.96007L12.776 7.78407C12.544 7.55207 12.544 7.16807 12.776 6.93607C13.008 6.70407 13.392 6.70407 13.624 6.93607L15.224 8.53607C15.456 8.76807 15.456 9.15207 15.224 9.38407Z" fill="#7C66FF"></path>
                        </svg>