<svg width="20" height="20" viewBox="0 0 20 20" fill="none" xmlns="http://www.w3.org/2000/svg">
                            <path d="M11.5838 6.6001H8.4078C7.4078 6.6001 6.5918 7.4081 6.5918 8.4161V11.5921C6.5918 12.5921 7.3998 13.4081 8.4078 13.4081H11.5838C12.5838 13.4081 13.3998 12.6001 13.3998 11.5921V8.4161C13.3998 7.4081 12.5918 6.6001 11.5838 6.6001ZM11.1998 10.7841L10.4878 12.0241C10.3838 12.2081 10.1918 12.3041 9.9998 12.3041C9.9038 12.3041 9.7998 12.2801 9.7198 12.2321C9.4478 12.0801 9.3518 11.7361 9.5118 11.4641L10.0238 10.5761H9.5758C9.2158 10.5761 8.9198 10.4161 8.7598 10.1441C8.5998 9.8721 8.6158 9.5361 8.7998 9.2241L9.5118 7.9841C9.6718 7.7121 10.0158 7.6241 10.2798 7.7761C10.5518 7.9281 10.6478 8.2721 10.4878 8.5441L9.9758 9.4321H10.4238C10.7838 9.4321 11.0798 9.5921 11.2398 9.8641C11.3998 10.1361 11.3838 10.4721 11.1998 10.7841Z" fill="#2869FE"></path>
                            <path d="M17.4 10.6C17.736 10.6 18 10.328 18 10C18 9.664 17.736 9.4 17.4 9.4H16.4V7.64H17.4C17.736 7.64 18 7.376 18 7.04C18 6.712 17.736 6.44 17.4 6.44H16.216C15.832 5.168 14.832 4.168 13.56 3.784V2.6C13.56 2.272 13.288 2 12.96 2C12.632 2 12.36 2.272 12.36 2.6V3.6H10.6V2.6C10.6 2.272 10.328 2 10 2C9.672 2 9.4 2.272 9.4 2.6V3.6H7.648V2.6C7.648 2.272 7.376 2 7.048 2C6.712 2 6.448 2.272 6.448 2.6V3.784C5.168 4.168 4.168 5.168 3.784 6.44H2.6C2.272 6.44 2 6.712 2 7.04C2 7.376 2.272 7.64 2.6 7.64H3.6V9.4H2.6C2.272 9.4 2 9.664 2 10C2 10.328 2.272 10.6 2.6 10.6H3.6V12.36H2.6C2.272 12.36 2 12.624 2 12.96C2 13.288 2.272 13.56 2.6 13.56H3.784C4.16 14.832 5.168 15.832 6.448 16.216V17.4C6.448 17.728 6.712 18 7.048 18C7.376 18 7.648 17.728 7.648 17.4V16.4H9.408V17.4C9.408 17.728 9.672 18 10.008 18C10.336 18 10.608 17.728 10.608 17.4V16.4H12.36V17.4C12.36 17.728 12.632 18 12.96 18C13.288 18 13.56 17.728 13.56 17.4V16.216C14.832 15.832 15.832 14.832 16.216 13.56H17.4C17.736 13.56 18 13.288 18 12.96C18 12.624 17.736 12.36 17.4 12.36H16.4V10.6H17.4ZM14.208 11.808C14.208 13.128 13.128 14.208 11.808 14.208H8.192C6.872 14.208 5.792 13.128 5.792 11.808V8.192C5.792 6.872 6.872 5.792 8.192 5.792H11.808C13.128 5.792 14.208 6.872 14.208 8.192V11.808V11.808Z" fill="#2869FE"></path>
                        </svg>