<svg class="icon" xmlns="http://www.w3.org/2000/svg" width="20" height="20" viewBox="0 0 20 20" fill="none">
    <path d="M7.62043 17.3185V14.7628C7.62042 14.1152 8.14704 13.589 8.79935 13.5849H11.1945C11.8497 13.5849 12.3809 14.1123 12.3809 14.7628V17.3111C12.3809 17.8728 12.8373 18.3293 13.4031 18.3334H15.0372C15.8003 18.3354 16.5329 18.0357 17.0733 17.5007C17.6136 16.9656 17.9173 16.239 17.9173 15.4813V8.22162C17.9173 7.60957 17.644 7.02901 17.1712 6.63633L11.6198 2.22864C10.6494 1.45768 9.26346 1.48259 8.32181 2.2879L2.88983 6.63633C2.3946 7.01743 2.09861 7.59972 2.08398 8.22162V15.4739C2.08398 17.0532 3.37347 18.3334 4.96413 18.3334H6.56089C6.83329 18.3354 7.09522 18.2293 7.28855 18.0388C7.48187 17.8482 7.59059 17.589 7.59058 17.3185H7.62043Z" fill="#D3D5DA"></path>
</svg>