<svg class="icon" xmlns="http://www.w3.org/2000/svg" width="20" height="20" viewBox="0 0 20 20" fill="none">
    <path opacity="0.4" d="M13.3947 1.66675H16.2164C17.3849 1.66675 18.3318 2.62162 18.3318 3.80005V6.64552C18.3318 7.82395 17.3849 8.77882 16.2164 8.77882H13.3947C12.2262 8.77882 11.2793 7.82395 11.2793 6.64552V3.80005C11.2793 2.62162 12.2262 1.66675 13.3947 1.66675Z" fill="#D3D5DA"></path>
    <path fill-rule="evenodd" clip-rule="evenodd" d="M3.78145 1.66675H6.60309C7.77165 1.66675 8.71853 2.62162 8.71853 3.80005V6.64552C8.71853 7.82395 7.77165 8.77882 6.60309 8.77882H3.78145C2.6129 8.77882 1.66602 7.82395 1.66602 6.64552V3.80005C1.66602 2.62162 2.6129 1.66675 3.78145 1.66675ZM3.78145 11.2213H6.60309C7.77165 11.2213 8.71853 12.1762 8.71853 13.3546V16.2001C8.71853 17.3777 7.77165 18.3334 6.60309 18.3334H3.78145C2.6129 18.3334 1.66602 17.3777 1.66602 16.2001V13.3546C1.66602 12.1762 2.6129 11.2213 3.78145 11.2213ZM16.2172 11.2213H13.3956C12.227 11.2213 11.2802 12.1762 11.2802 13.3546V16.2001C11.2802 17.3777 12.227 18.3334 13.3956 18.3334H16.2172C17.3858 18.3334 18.3327 17.3777 18.3327 16.2001V13.3546C18.3327 12.1762 17.3858 11.2213 16.2172 11.2213Z" fill="#D3D5DA"></path>
</svg>