<svg width="20" height="20" viewBox="0 0 20 20" fill="none" xmlns="http://www.w3.org/2000/svg">
    <g opacity="0.5">
    <path d="M5 8.33341V6.66675C5 3.90841 5.83333 1.66675 10 1.66675C14.1667 1.66675 15 3.90841 15 6.66675V8.33341" stroke="#121927" stroke-width="1.25" stroke-linecap="round" stroke-linejoin="round"></path>
    <path d="M9.99984 15.4167C11.1504 15.4167 12.0832 14.4839 12.0832 13.3333C12.0832 12.1827 11.1504 11.25 9.99984 11.25C8.84924 11.25 7.9165 12.1827 7.9165 13.3333C7.9165 14.4839 8.84924 15.4167 9.99984 15.4167Z" stroke="#121927" stroke-width="1.25" stroke-linecap="round" stroke-linejoin="round"></path>
    <path d="M14.1665 18.3333H5.83317C2.49984 18.3333 1.6665 17.4999 1.6665 14.1666V12.4999C1.6665 9.16659 2.49984 8.33325 5.83317 8.33325H14.1665C17.4998 8.33325 18.3332 9.16659 18.3332 12.4999V14.1666C18.3332 17.4999 17.4998 18.3333 14.1665 18.3333Z" stroke="#121927" stroke-width="1.25" stroke-linecap="round" stroke-linejoin="round"></path>
    </g>
</svg>