<svg width="20" height="20" viewBox="0 0 20 20" fill="none" xmlns="http://www.w3.org/2000/svg">
                        <g opacity="0.7">
                            <path d="M10.442 17.0167H5.17533C2.54199 17.0167 1.66699 15.2667 1.66699 13.5084V6.49173C1.66699 3.8584 2.54199 2.9834 5.17533 2.9834H10.442C13.0753 2.9834 13.9503 3.8584 13.9503 6.49173V13.5084C13.9503 16.1417 13.067 17.0167 10.442 17.0167Z" stroke="#121927" stroke-width="1.5" stroke-linecap="round" stroke-linejoin="round"></path>
                            <path d="M16.2669 14.2501L13.9502 12.6251V7.36678L16.2669 5.74178C17.4002 4.95011 18.3335 5.43344 18.3335 6.82511V13.1751C18.3335 14.5668 17.4002 15.0501 16.2669 14.2501Z" stroke="#121927" stroke-width="1.5" stroke-linecap="round" stroke-linejoin="round"></path>
                            <path d="M9.58301 9.1665C10.2734 9.1665 10.833 8.60686 10.833 7.9165C10.833 7.22615 10.2734 6.6665 9.58301 6.6665C8.89265 6.6665 8.33301 7.22615 8.33301 7.9165C8.33301 8.60686 8.89265 9.1665 9.58301 9.1665Z" stroke="#121927" stroke-width="1.5" stroke-linecap="round" stroke-linejoin="round"></path>
                        </g>
                    </svg>